<svg xmlns="http://www.w3.org/2000/svg" version="1.1" xmlns:xlink="http://www.w3.org/1999/xlink" xmlns:svgjs="http://svgjs.dev/svgjs" viewBox="0 0 16.62023232612543 4.912013775379956"><g transform="matrix(1,0,0,1,6.390724941896531,0.8053318876899778)"><rect width="16.62023232612543" height="16.62023232612543" x="-6.390724941896531" y="-6.659441163062714" fill="#202020"></rect><g><path d=" M 0.23925000000000002 1.0252499999999998 Q 0.135 0.9854999999999998 0.0765 0.9224999999999999 L 0.111 0.8654999999999999 Q 0.1665 0.9239999999999999 0.26025 0.9607499999999999 Q 0.354 0.9974999999999998 0.4575 0.9974999999999998 Q 0.6075 0.9974999999999998 0.684 0.9404999999999999 Q 0.7605000000000001 0.8834999999999998 0.7605000000000001 0.7919999999999998 Q 0.7605000000000001 0.7214999999999998 0.72 0.6794999999999999 Q 0.6795 0.6375 0.6195 0.6149999999999999 Q 0.5595 0.5924999999999998 0.4575 0.5684999999999999 Q 0.342 0.5399999999999999 0.27225 0.5129999999999999 Q 0.2025 0.4859999999999999 0.15375 0.42974999999999985 Q 0.105 0.37349999999999983 0.105 0.2789999999999999 Q 0.105 0.2024999999999999 0.1455 0.13874999999999982 Q 0.186 0.07499999999999984 0.26925 0.03749999999999987 Q 0.3525 -2.220446049250313e-16 0.47700000000000004 -2.220446049250313e-16 Q 0.5640000000000001 -2.220446049250313e-16 0.648 0.025499999999999856 Q 0.732 0.050999999999999934 0.7935 0.09449999999999992 L 0.765 0.15599999999999992 Q 0.7020000000000001 0.11249999999999982 0.62625 0.08999999999999986 Q 0.5505 0.0674999999999999 0.47700000000000004 0.0674999999999999 Q 0.3315 0.0674999999999999 0.2565 0.1259999999999999 Q 0.1815 0.1844999999999999 0.1815 0.27749999999999986 Q 0.1815 0.34799999999999986 0.222 0.3899999999999999 Q 0.2625 0.43199999999999983 0.3225 0.4544999999999999 Q 0.3825 0.47699999999999987 0.486 0.5024999999999998 Q 0.6015 0.5309999999999999 0.6705 0.5579999999999998 Q 0.7395 0.5849999999999999 0.78825 0.6397499999999998 Q 0.837 0.6944999999999999 0.837 0.7874999999999999 Q 0.837 0.8639999999999999 0.7957500000000001 0.9269999999999998 Q 0.7545000000000001 0.9899999999999999 0.669 1.0274999999999999 Q 0.5835 1.065 0.459 1.065 Q 0.3435 1.065 0.23925000000000002 1.0252499999999998 M 1.29749853515625 0.0764999999999999 L 0.91949853515625 0.0764999999999999 L 0.91949853515625 0.00749999999999984 L 1.75199853515625 0.00749999999999984 L 1.75199853515625 0.0764999999999999 L 1.37399853515625 0.0764999999999999 L 1.37399853515625 1.0574999999999999 L 1.29749853515625 1.0574999999999999 L 1.29749853515625 0.0764999999999999 M 2.68048095703125 0.9884999999999999 L 2.68048095703125 1.0574999999999999 L 1.95598095703125 1.0574999999999999 L 1.95598095703125 0.00749999999999984 L 2.65798095703125 0.00749999999999984 L 2.65798095703125 0.0764999999999999 L 2.03248095703125 0.0764999999999999 L 2.03248095703125 0.4904999999999998 L 2.59198095703125 0.4904999999999998 L 2.59198095703125 0.5579999999999998 L 2.03248095703125 0.5579999999999998 L 2.03248095703125 0.9884999999999999 L 2.68048095703125 0.9884999999999999 M 3.050990478515625 0.0764999999999999 L 3.050990478515625 0.5249999999999999 L 3.610490478515625 0.5249999999999999 L 3.610490478515625 0.5939999999999999 L 3.050990478515625 0.5939999999999999 L 3.050990478515625 1.0574999999999999 L 2.9744904785156248 1.0574999999999999 L 2.9744904785156248 0.00749999999999984 L 3.6764904785156247 0.00749999999999984 L 3.6764904785156247 0.0764999999999999 L 3.050990478515625 0.0764999999999999 M 4.5344677734375 0.7619999999999999 L 3.9254677734375 0.7619999999999999 L 3.7919677734375 1.0574999999999999 L 3.7094677734375 1.0574999999999999 L 4.1924677734375 0.00749999999999984 L 4.2689677734375 0.00749999999999984 L 4.7519677734375 1.0574999999999999 L 4.6694677734375 1.0574999999999999 L 4.5344677734375 0.7619999999999999 M 4.5059677734375 0.6974999999999999 L 4.2299677734375 0.09149999999999991 L 3.9554677734375 0.6974999999999999 L 4.5059677734375 0.6974999999999999 M 5.812493408203125 0.00749999999999984 L 5.812493408203125 1.0574999999999999 L 5.749493408203125 1.0574999999999999 L 5.033993408203125 0.14549999999999985 L 5.033993408203125 1.0574999999999999 L 4.957493408203125 1.0574999999999999 L 4.957493408203125 0.00749999999999984 L 5.021993408203125 0.00749999999999984 L 5.735993408203125 0.9194999999999999 L 5.735993408203125 0.00749999999999984 L 5.812493408203125 0.00749999999999984 M 0.97875 1.9694999999999998 Q 1.038 2.037 1.038 2.145 Q 1.038 2.2784999999999997 0.9405 2.3505 Q 0.843 2.4225 0.651 2.4225 L 0.183 2.4225 L 0.183 1.3724999999999998 L 0.621 1.3724999999999998 Q 0.792 1.3724999999999998 0.88725 1.4422499999999998 Q 0.9825 1.512 0.9825 1.641 Q 0.9825 1.7309999999999999 0.93525 1.7925 Q 0.888 1.8539999999999999 0.807 1.8809999999999998 Q 0.9195 1.902 0.97875 1.9694999999999998 M 0.2595 1.4385 L 0.2595 1.8569999999999998 L 0.618 1.8569999999999998 Q 0.756 1.8569999999999998 0.83025 1.80375 Q 0.9045 1.7504999999999997 0.9045 1.6469999999999998 Q 0.9045 1.545 0.83025 1.49175 Q 0.756 1.4385 0.618 1.4385 L 0.2595 1.4385 M 0.88275 2.30325 Q 0.9615 2.25 0.9615 2.139 Q 0.9615 2.028 0.88275 1.9754999999999998 Q 0.804 1.9229999999999998 0.651 1.9229999999999998 L 0.2595 1.9229999999999998 L 0.2595 2.3565 L 0.651 2.3565 Q 0.804 2.3565 0.88275 2.30325 M 1.492521240234375 2.3602499999999997 Q 1.3680212402343752 2.2904999999999998 1.2967712402343752 2.169 Q 1.2255212402343751 2.0475 1.2255212402343751 1.8975 Q 1.2255212402343751 1.7474999999999998 1.2967712402343752 1.626 Q 1.3680212402343752 1.5044999999999997 1.492521240234375 1.4347499999999997 Q 1.617021240234375 1.3649999999999998 1.7715212402343752 1.3649999999999998 Q 1.926021240234375 1.3649999999999998 2.0505212402343753 1.4339999999999997 Q 2.175021240234375 1.503 2.246271240234375 1.6244999999999998 Q 2.3175212402343752 1.746 2.3175212402343752 1.8975 Q 2.3175212402343752 2.049 2.246271240234375 2.1704999999999997 Q 2.175021240234375 2.292 2.0505212402343753 2.3609999999999998 Q 1.926021240234375 2.4299999999999997 1.7715212402343752 2.4299999999999997 Q 1.617021240234375 2.4299999999999997 1.492521240234375 2.3602499999999997 M 2.010021240234375 2.2995 Q 2.116521240234375 2.2395 2.178021240234375 2.13375 Q 2.2395212402343754 2.028 2.2395212402343754 1.8975 Q 2.2395212402343754 1.767 2.178021240234375 1.66125 Q 2.116521240234375 1.5554999999999999 2.010021240234375 1.4954999999999998 Q 1.903521240234375 1.4354999999999998 1.7715212402343752 1.4354999999999998 Q 1.639521240234375 1.4354999999999998 1.5322712402343752 1.4954999999999998 Q 1.4250212402343752 1.5554999999999999 1.363521240234375 1.66125 Q 1.3020212402343752 1.767 1.3020212402343752 1.8975 Q 1.3020212402343752 2.028 1.363521240234375 2.13375 Q 1.4250212402343752 2.2395 1.5322712402343752 2.2995 Q 1.639521240234375 2.3594999999999997 1.7715212402343752 2.3594999999999997 Q 1.903521240234375 2.3594999999999997 2.010021240234375 2.2995 M 2.6542902832031254 2.39025 Q 2.550040283203125 2.3505 2.491540283203125 2.2874999999999996 L 2.5260402832031255 2.2304999999999997 Q 2.5815402832031253 2.2889999999999997 2.6752902832031253 2.3257499999999998 Q 2.7690402832031253 2.3625 2.8725402832031253 2.3625 Q 3.022540283203125 2.3625 3.0990402832031254 2.3055 Q 3.175540283203125 2.2485 3.175540283203125 2.157 Q 3.175540283203125 2.0865 3.135040283203125 2.0444999999999998 Q 3.0945402832031252 2.0025 3.034540283203125 1.98 Q 2.974540283203125 1.9574999999999998 2.8725402832031253 1.9335 Q 2.7570402832031253 1.9049999999999998 2.6872902832031254 1.878 Q 2.6175402832031254 1.851 2.5687902832031253 1.7947499999999998 Q 2.5200402832031252 1.7384999999999997 2.5200402832031252 1.644 Q 2.5200402832031252 1.5675 2.5605402832031254 1.5037499999999997 Q 2.601040283203125 1.44 2.6842902832031252 1.4024999999999999 Q 2.7675402832031253 1.3649999999999998 2.892040283203125 1.3649999999999998 Q 2.9790402832031253 1.3649999999999998 3.0630402832031254 1.3904999999999998 Q 3.1470402832031255 1.416 3.208540283203125 1.4594999999999998 L 3.1800402832031254 1.521 Q 3.117040283203125 1.4774999999999998 3.041290283203125 1.4549999999999998 Q 2.9655402832031252 1.4324999999999999 2.892040283203125 1.4324999999999999 Q 2.7465402832031254 1.4324999999999999 2.671540283203125 1.4909999999999999 Q 2.596540283203125 1.5494999999999999 2.596540283203125 1.6424999999999998 Q 2.596540283203125 1.7129999999999999 2.6370402832031252 1.755 Q 2.6775402832031254 1.7969999999999997 2.737540283203125 1.8195 Q 2.797540283203125 1.8419999999999999 2.901040283203125 1.8674999999999997 Q 3.0165402832031254 1.896 3.0855402832031253 1.9229999999999998 Q 3.1545402832031253 1.9499999999999997 3.2032902832031254 2.00475 Q 3.252040283203125 2.0595 3.252040283203125 2.1525 Q 3.252040283203125 2.229 3.210790283203125 2.292 Q 3.1695402832031254 2.355 3.0840402832031253 2.3925 Q 2.998540283203125 2.4299999999999997 2.8740402832031253 2.4299999999999997 Q 2.7585402832031254 2.4299999999999997 2.6542902832031254 2.39025 M 3.8385534667968755 1.9049999999999998 L 3.6030534667968754 2.1464999999999996 L 3.6030534667968754 2.4225 L 3.526553466796875 2.4225 L 3.526553466796875 1.3724999999999998 L 3.6030534667968754 1.3724999999999998 L 3.6030534667968754 2.0475 L 4.258553466796876 1.3724999999999998 L 4.351553466796876 1.3724999999999998 L 3.889553466796875 1.8495 L 4.383053466796875 2.4225 L 4.290053466796875 2.4225 L 3.8385534667968755 1.9049999999999998 M 5.206556396484375 2.127 L 4.597556396484375 2.127 L 4.464056396484375 2.4225 L 4.381556396484376 2.4225 L 4.864556396484375 1.3724999999999998 L 4.941056396484376 1.3724999999999998 L 5.424056396484375 2.4225 L 5.341556396484376 2.4225 L 5.206556396484375 2.127 M 5.178056396484376 2.0625 L 4.902056396484376 1.4565 L 4.627556396484375 2.0625 L 5.178056396484376 2.0625 M 6.622582031250001 2.4225 L 6.621082031250001 1.524 L 6.181582031250001 2.283 L 6.144082031250001 2.283 L 5.704582031250001 1.5269999999999997 L 5.704582031250001 2.4225 L 5.629582031250001 2.4225 L 5.629582031250001 1.3724999999999998 L 5.694082031250001 1.3724999999999998 L 6.163582031250001 2.1839999999999997 L 6.633082031250002 1.3724999999999998 L 6.696082031250001 1.3724999999999998 L 6.697582031250001 2.4225 L 6.622582031250001 2.4225 M 7.765572509765627 1.4662499999999998 Q 7.878072509765627 1.5599999999999998 7.878072509765627 1.7264999999999997 Q 7.878072509765627 1.8914999999999997 7.765572509765627 1.9852499999999997 Q 7.653072509765627 2.0789999999999997 7.4550725097656265 2.0789999999999997 L 7.155072509765627 2.0789999999999997 L 7.155072509765627 2.4225 L 7.0785725097656265 2.4225 L 7.0785725097656265 1.3724999999999998 L 7.4550725097656265 1.3724999999999998 Q 7.653072509765627 1.3724999999999998 7.765572509765627 1.4662499999999998 M 7.7115725097656265 1.9364999999999999 Q 7.800072509765626 1.863 7.800072509765626 1.7264999999999997 Q 7.800072509765626 1.5899999999999999 7.7115725097656265 1.5157499999999997 Q 7.623072509765627 1.4415 7.4550725097656265 1.4415 L 7.155072509765627 1.4415 L 7.155072509765627 2.01 L 7.4550725097656265 2.01 Q 7.623072509765627 2.01 7.7115725097656265 1.9364999999999999" fill="#ffffff" fill-rule="nonzero"></path></g><g><path d=" M 0.14100000000000001 2.8243500000000004 L 0.14100000000000001 3.0306 L 0.41250000000000003 3.0306 L 0.41250000000000003 3.0786000000000002 L 0.14100000000000001 3.0786000000000002 L 0.14100000000000001 3.3013500000000002 L 0.0855 3.3013500000000002 L 0.0855 2.7763500000000003 L 0.4455 2.7763500000000003 L 0.4455 2.8243500000000004 L 0.14100000000000001 2.8243500000000004 M 0.9262467041015625 3.3013500000000002 L 0.8062467041015625 3.1326 Q 0.7859967041015625 3.13485 0.7642467041015626 3.13485 L 0.6232467041015626 3.13485 L 0.6232467041015626 3.3013500000000002 L 0.5677467041015625 3.3013500000000002 L 0.5677467041015625 2.7763500000000003 L 0.7642467041015626 2.7763500000000003 Q 0.8647467041015625 2.7763500000000003 0.9217467041015626 2.8243500000000004 Q 0.9787467041015625 2.8723500000000004 0.9787467041015625 2.95635 Q 0.9787467041015625 3.01785 0.9476217041015624 3.0602250000000004 Q 0.9164967041015626 3.1026000000000002 0.8587467041015625 3.12135 L 0.9869967041015626 3.3013500000000002 L 0.9262467041015625 3.3013500000000002 M 0.8819967041015625 3.0531 Q 0.9232467041015625 3.0186 0.9232467041015625 2.95635 Q 0.9232467041015625 2.8926000000000003 0.8819967041015625 2.8584750000000003 Q 0.8407467041015625 2.8243500000000004 0.7627467041015625 2.8243500000000004 L 0.6232467041015626 2.8243500000000004 L 0.6232467041015626 3.0876 L 0.7627467041015625 3.0876 Q 0.8407467041015625 3.0876 0.8819967041015625 3.0531 M 1.2056385498046875 3.2709750000000004 Q 1.1422635498046876 3.2361000000000004 1.1066385498046876 3.1753500000000003 Q 1.0710135498046875 3.1146000000000003 1.0710135498046875 3.03885 Q 1.0710135498046875 2.9631000000000003 1.1066385498046876 2.90235 Q 1.1422635498046876 2.8416 1.2056385498046875 2.806725 Q 1.2690135498046877 2.77185 1.3470135498046876 2.77185 Q 1.4250135498046876 2.77185 1.4876385498046876 2.80635 Q 1.5502635498046877 2.84085 1.5862635498046878 2.901975 Q 1.6222635498046878 2.9631000000000003 1.6222635498046878 3.03885 Q 1.6222635498046878 3.1146000000000003 1.5862635498046878 3.1757250000000004 Q 1.5502635498046877 3.2368500000000004 1.4876385498046876 3.2713500000000004 Q 1.4250135498046876 3.3058500000000004 1.3470135498046876 3.3058500000000004 Q 1.2690135498046877 3.3058500000000004 1.2056385498046875 3.2709750000000004 M 1.4595135498046876 3.228225 Q 1.5097635498046875 3.2001000000000004 1.5382635498046877 3.1502250000000003 Q 1.5667635498046877 3.10035 1.5667635498046877 3.03885 Q 1.5667635498046877 2.9773500000000004 1.5382635498046877 2.9274750000000003 Q 1.5097635498046875 2.8776 1.4595135498046876 2.849475 Q 1.4092635498046877 2.8213500000000002 1.3470135498046876 2.8213500000000002 Q 1.2847635498046877 2.8213500000000002 1.2341385498046877 2.849475 Q 1.1835135498046876 2.8776 1.1546385498046876 2.9274750000000003 Q 1.1257635498046876 2.9773500000000004 1.1257635498046876 3.03885 Q 1.1257635498046876 3.10035 1.1546385498046876 3.1502250000000003 Q 1.1835135498046876 3.2001000000000004 1.2341385498046877 3.228225 Q 1.2847635498046877 3.2563500000000003 1.3470135498046876 3.2563500000000003 Q 1.4092635498046877 3.2563500000000003 1.4595135498046876 3.228225 M 2.193005493164063 2.7763500000000003 L 2.193005493164063 3.3013500000000002 L 2.147255493164063 3.3013500000000002 L 1.8097554931640627 2.87535 L 1.8097554931640627 3.3013500000000002 L 1.7542554931640626 3.3013500000000002 L 1.7542554931640626 2.7763500000000003 L 1.8000054931640628 2.7763500000000003 L 2.1382554931640625 3.20235 L 2.1382554931640625 2.7763500000000003 L 2.193005493164063 2.7763500000000003 M 2.4734967041015627 2.8243500000000004 L 2.288996704101563 2.8243500000000004 L 2.288996704101563 2.7763500000000003 L 2.713496704101563 2.7763500000000003 L 2.713496704101563 2.8243500000000004 L 2.5289967041015626 2.8243500000000004 L 2.5289967041015626 3.3013500000000002 L 2.4734967041015627 3.3013500000000002 L 2.4734967041015627 2.8243500000000004 M 3.1807276611328126 3.25335 L 3.1807276611328126 3.3013500000000002 L 2.8094776611328127 3.3013500000000002 L 2.8094776611328127 2.7763500000000003 L 3.1694776611328126 2.7763500000000003 L 3.1694776611328126 2.8243500000000004 L 2.8649776611328126 2.8243500000000004 L 2.8649776611328126 3.0111000000000003 L 3.1364776611328127 3.0111000000000003 L 3.1364776611328127 3.0583500000000003 L 2.8649776611328126 3.0583500000000003 L 2.8649776611328126 3.25335 L 3.1807276611328126 3.25335 M 3.757482421875 2.7763500000000003 L 3.757482421875 3.3013500000000002 L 3.711732421875 3.3013500000000002 L 3.374232421875 2.87535 L 3.374232421875 3.3013500000000002 L 3.318732421875 3.3013500000000002 L 3.318732421875 2.7763500000000003 L 3.364482421875 2.7763500000000003 L 3.702732421875 3.20235 L 3.702732421875 2.7763500000000003 L 3.757482421875 2.7763500000000003 M 3.9359736328125 2.7763500000000003 L 4.1497236328125 2.7763500000000003 Q 4.2329736328125 2.7763500000000003 4.296723632812499 2.8097250000000003 Q 4.3604736328125 2.8431 4.3957236328125 2.902725 Q 4.4309736328125 2.9623500000000003 4.4309736328125 3.03885 Q 4.4309736328125 3.1153500000000003 4.3957236328125 3.1749750000000003 Q 4.3604736328125 3.2346000000000004 4.296723632812499 3.2679750000000003 Q 4.2329736328125 3.3013500000000002 4.1497236328125 3.3013500000000002 L 3.9359736328125 3.3013500000000002 L 3.9359736328125 2.7763500000000003 M 4.1467236328125 3.25335 Q 4.2157236328125 3.25335 4.2674736328125 3.225975 Q 4.3192236328125 3.1986000000000003 4.3477236328124995 3.1502250000000003 Q 4.3762236328125 3.10185 4.3762236328125 3.03885 Q 4.3762236328125 2.9758500000000003 4.3477236328124995 2.9274750000000003 Q 4.3192236328125 2.8791 4.2674736328125 2.851725 Q 4.2157236328125 2.8243500000000004 4.1467236328125 2.8243500000000004 L 3.9914736328125 2.8243500000000004 L 3.9914736328125 3.25335 L 4.1467236328125 3.25335 M 4.766983154296875 2.7763500000000003 L 4.980733154296875 2.7763500000000003 Q 5.063983154296875 2.7763500000000003 5.127733154296875 2.8097250000000003 Q 5.191483154296875 2.8431 5.226733154296875 2.902725 Q 5.261983154296875 2.9623500000000003 5.261983154296875 3.03885 Q 5.261983154296875 3.1153500000000003 5.226733154296875 3.1749750000000003 Q 5.191483154296875 3.2346000000000004 5.127733154296875 3.2679750000000003 Q 5.063983154296875 3.3013500000000002 4.980733154296875 3.3013500000000002 L 4.766983154296875 3.3013500000000002 L 4.766983154296875 2.7763500000000003 M 4.977733154296875 3.25335 Q 5.0467331542968745 3.25335 5.098483154296875 3.225975 Q 5.150233154296875 3.1986000000000003 5.178733154296875 3.1502250000000003 Q 5.207233154296875 3.10185 5.207233154296875 3.03885 Q 5.207233154296875 2.9758500000000003 5.178733154296875 2.9274750000000003 Q 5.150233154296875 2.8791 5.098483154296875 2.851725 Q 5.0467331542968745 2.8243500000000004 4.977733154296875 2.8243500000000004 L 4.822483154296875 2.8243500000000004 L 4.822483154296875 3.25335 L 4.977733154296875 3.25335 M 5.765224731445313 3.25335 L 5.765224731445313 3.3013500000000002 L 5.393974731445312 3.3013500000000002 L 5.393974731445312 2.7763500000000003 L 5.753974731445313 2.7763500000000003 L 5.753974731445313 2.8243500000000004 L 5.449474731445313 2.8243500000000004 L 5.449474731445313 3.0111000000000003 L 5.720974731445312 3.0111000000000003 L 5.720974731445312 3.0583500000000003 L 5.449474731445313 3.0583500000000003 L 5.449474731445313 3.25335 L 5.765224731445313 3.25335 M 6.332222167968751 2.7763500000000003 L 6.099722167968751 3.3013500000000002 L 6.0449721679687505 3.3013500000000002 L 5.8124721679687505 2.7763500000000003 L 5.87247216796875 2.7763500000000003 L 6.073472167968751 3.2323500000000003 L 6.27597216796875 2.7763500000000003 L 6.332222167968751 2.7763500000000003 M 6.786709716796876 3.25335 L 6.786709716796876 3.3013500000000002 L 6.415459716796875 3.3013500000000002 L 6.415459716796875 2.7763500000000003 L 6.775459716796876 2.7763500000000003 L 6.775459716796876 2.8243500000000004 L 6.470959716796876 2.8243500000000004 L 6.470959716796876 3.0111000000000003 L 6.742459716796875 3.0111000000000003 L 6.742459716796875 3.0583500000000003 L 6.470959716796876 3.0583500000000003 L 6.470959716796876 3.25335 L 6.786709716796876 3.25335 M 6.924714477539063 2.7763500000000003 L 6.9802144775390635 2.7763500000000003 L 6.9802144775390635 3.25335 L 7.274214477539063 3.25335 L 7.274214477539063 3.3013500000000002 L 6.924714477539063 3.3013500000000002 L 6.924714477539063 2.7763500000000003 M 7.451598632812502 3.2709750000000004 Q 7.388223632812501 3.2361000000000004 7.3525986328125015 3.1753500000000003 Q 7.316973632812501 3.1146000000000003 7.316973632812501 3.03885 Q 7.316973632812501 2.9631000000000003 7.3525986328125015 2.90235 Q 7.388223632812501 2.8416 7.451598632812502 2.806725 Q 7.514973632812501 2.77185 7.592973632812502 2.77185 Q 7.670973632812501 2.77185 7.733598632812502 2.80635 Q 7.796223632812501 2.84085 7.832223632812501 2.901975 Q 7.8682236328125015 2.9631000000000003 7.8682236328125015 3.03885 Q 7.8682236328125015 3.1146000000000003 7.832223632812501 3.1757250000000004 Q 7.796223632812501 3.2368500000000004 7.733598632812502 3.2713500000000004 Q 7.670973632812501 3.3058500000000004 7.592973632812502 3.3058500000000004 Q 7.514973632812501 3.3058500000000004 7.451598632812502 3.2709750000000004 M 7.7054736328125015 3.228225 Q 7.755723632812502 3.2001000000000004 7.784223632812501 3.1502250000000003 Q 7.812723632812501 3.10035 7.812723632812501 3.03885 Q 7.812723632812501 2.9773500000000004 7.784223632812501 2.9274750000000003 Q 7.755723632812502 2.8776 7.7054736328125015 2.849475 Q 7.655223632812501 2.8213500000000002 7.592973632812502 2.8213500000000002 Q 7.530723632812501 2.8213500000000002 7.480098632812501 2.849475 Q 7.429473632812502 2.8776 7.4005986328125015 2.9274750000000003 Q 7.371723632812501 2.9773500000000004 7.371723632812501 3.03885 Q 7.371723632812501 3.10035 7.4005986328125015 3.1502250000000003 Q 7.429473632812502 3.2001000000000004 7.480098632812501 3.228225 Q 7.530723632812501 3.2563500000000003 7.592973632812502 3.2563500000000003 Q 7.655223632812501 3.2563500000000003 7.7054736328125015 3.228225 M 8.354215576171876 2.8243500000000004 Q 8.411215576171877 2.8723500000000004 8.411215576171877 2.95635 Q 8.411215576171877 3.04035 8.354215576171876 3.087975 Q 8.297215576171876 3.1356 8.196715576171876 3.1356 L 8.055715576171878 3.1356 L 8.055715576171878 3.3013500000000002 L 8.000215576171877 3.3013500000000002 L 8.000215576171877 2.7763500000000003 L 8.196715576171876 2.7763500000000003 Q 8.297215576171876 2.7763500000000003 8.354215576171876 2.8243500000000004 M 8.314465576171877 3.052725 Q 8.355715576171876 3.0186 8.355715576171876 2.95635 Q 8.355715576171876 2.8926000000000003 8.314465576171877 2.8584750000000003 Q 8.273215576171877 2.8243500000000004 8.195215576171877 2.8243500000000004 L 8.055715576171878 2.8243500000000004 L 8.055715576171878 3.08685 L 8.195215576171877 3.08685 Q 8.273215576171877 3.08685 8.314465576171877 3.052725 M 8.909971435546876 3.25335 L 8.909971435546876 3.3013500000000002 L 8.538721435546876 3.3013500000000002 L 8.538721435546876 2.7763500000000003 L 8.898721435546875 2.7763500000000003 L 8.898721435546875 2.8243500000000004 L 8.594221435546876 2.8243500000000004 L 8.594221435546876 3.0111000000000003 L 8.865721435546876 3.0111000000000003 L 8.865721435546876 3.0583500000000003 L 8.594221435546876 3.0583500000000003 L 8.594221435546876 3.25335 L 8.909971435546876 3.25335 M 9.406476196289065 3.3013500000000002 L 9.286476196289064 3.1326 Q 9.266226196289065 3.13485 9.244476196289064 3.13485 L 9.103476196289064 3.13485 L 9.103476196289064 3.3013500000000002 L 9.047976196289063 3.3013500000000002 L 9.047976196289063 2.7763500000000003 L 9.244476196289064 2.7763500000000003 Q 9.344976196289064 2.7763500000000003 9.401976196289064 2.8243500000000004 Q 9.458976196289063 2.8723500000000004 9.458976196289063 2.95635 Q 9.458976196289063 3.01785 9.427851196289064 3.0602250000000004 Q 9.396726196289064 3.1026000000000002 9.338976196289064 3.12135 L 9.467226196289063 3.3013500000000002 L 9.406476196289065 3.3013500000000002 M 9.362226196289063 3.0531 Q 9.403476196289065 3.0186 9.403476196289065 2.95635 Q 9.403476196289065 2.8926000000000003 9.362226196289063 2.8584750000000003 Q 9.320976196289063 2.8243500000000004 9.242976196289064 2.8243500000000004 L 9.103476196289064 2.8243500000000004 L 9.103476196289064 3.0876 L 9.242976196289064 3.0876 Q 9.320976196289063 3.0876 9.362226196289063 3.0531" fill="#fbe585" fill-rule="nonzero"></path></g><g clip-path="url(&quot;#SvgjsClipPath1003&quot;)"><g clip-path="url(&quot;#SvgjsClipPath1000&quot;)"><path d=" M -0.5012750825649812 2.5971502201477126 L -0.7139069301222216 2.5971502201477126 L -0.7139069301222216 0.020707537111711416 C -0.7139069301222216 -0.006152284794381041 -0.7245769528290111 -0.03191199832395163 -0.7435697150402767 -0.050904760535213756 C -0.7625624772515351 -0.06989752274647212 -0.7883221907811055 -0.08056754545326505 -0.8151820126872016 -0.08056754545326505 L -5.250778586972618 -0.08056754545326505 C -5.2776384088787065 -0.0805675454532688 -5.303398122408277 -0.06989752274647587 -5.322390884619535 -0.050904760535213756 C -5.341383646830801 -0.03191199832395163 -5.352053669537598 -0.006152284794381041 -5.352053669537598 0.020707537111711416 L -5.352053669537598 2.5971502201477126 L -5.564685517094839 2.5971502201477126 C -5.591545339000935 2.597150220147709 -5.617305052530498 2.6078202428545016 -5.636297814741764 2.6268130050657637 C -5.655290576953029 2.645805767277026 -5.665960599659819 2.671565480806593 -5.665960599659819 2.698425302712689 L -5.665960599659819 2.9848367353059566 C -5.665960599659819 3.2077793944365554 -5.530316145183641 3.38237580374541 -5.356636252459089 3.38237580374541 L -0.7084078306164328 3.38237580374541 C -0.5351861961840294 3.38237580374541 -0.3990834834157102 3.2077793944365554 -0.3990834834157102 2.9848367353059566 L -0.3990834834157102 2.698425302712689 C -0.39908237697100724 2.6714059273621844 -0.40987811937421004 2.645506339124274 -0.4290695694094442 2.626487009717197 C -0.44826101944467833 2.607467680310112 -0.47425681363676286 2.5969057008908845 -0.5012750825650931 2.5971502201477126 Z M -5.149503504407638 0.122555442541878 L -0.9164570952521744 0.122555442541878 L -0.9164570952521744 2.5971502201477126 L -2.388955552500681 2.5971502201477126 C -2.4970522178333967 2.5973151365299123 -2.5852008918920935 2.683835197672977 -2.5873813930012997 2.7919099943111307 L -3.478579206658513 2.7919099943111307 C -3.480759707767726 2.683835197672977 -3.568908381826423 2.5973151365299123 -3.677005047159131 2.5971502201477126 L -5.149503504407638 2.5971502201477126 Z M -0.6025501651299541 2.9849512998789973 C -0.6025501651299541 3.0965371940173325 -0.6586868059182329 3.1797110740424195 -0.7088660889085743 3.1797110740424195 L -5.357094510751246 3.1797110740424195 C -5.407273793741579 3.1797110740424195 -5.463410434529866 3.0963080648712578 -5.463410434529866 2.9849512998789973 L -5.463410434529866 2.800273208142859 L -3.6810148072154396 2.800273208142859 C -3.6788957742864223 2.9083296299776986 -3.590780600894733 2.9948667731122325 -3.482703531287862 2.9950329823062813 L -2.583257068371965 2.9950329823062813 C -2.475179998765094 2.9948667731122325 -2.387064825373405 2.9083296299776986 -2.3849457924443875 2.800273208142859 L -0.6025501651299683 2.800273208142859 Z" fill="#1192dc" transform="matrix(1,0,0,1,0,0)" fill-rule="nonzero"></path></g></g></g><defs><clipPath id="SvgjsClipPath1003"><path d=" M -5.665960599659819 -0.08056754545326505 h 5.265960599659818 v 3.4624850909065303 h -5.265960599659818 Z"></path></clipPath><clipPath id="SvgjsClipPath1000"><path d=" M -5.665960599659819 -0.08056754545326505 L -0.40000000000000036 -0.08056754545326505 L -0.40000000000000036 3.3819175454532653 L -5.665960599659819 3.3819175454532653 Z"></path></clipPath></defs></svg>